<svg width="666" height="211" viewBox="0 0 666 211" fill="none" xmlns="http://www.w3.org/2000/svg">
<path d="M106.683 53.9954V164H81.0123V117.492H36.3159V164H10.6456V53.9954H36.3159V99.9753H81.0123V53.9954H106.683ZM171.646 115.453C171.646 113.591 171.395 111.779 170.891 110.017C170.438 108.255 169.658 106.695 168.551 105.336C167.494 103.927 166.084 102.794 164.323 101.938C162.561 101.083 160.422 100.655 157.905 100.655C153.476 100.655 150.003 101.938 147.486 104.505C144.969 107.022 143.308 110.671 142.503 115.453H171.646ZM142.201 129.043C142.956 135.587 144.944 140.343 148.166 143.313C151.387 146.232 155.539 147.692 160.623 147.692C163.341 147.692 165.682 147.365 167.645 146.71C169.608 146.056 171.344 145.326 172.854 144.521C174.415 143.715 175.824 142.986 177.082 142.331C178.391 141.677 179.75 141.35 181.159 141.35C183.022 141.35 184.431 142.029 185.387 143.388L192.182 151.769C189.766 154.537 187.149 156.802 184.33 158.564C181.562 160.275 178.693 161.634 175.723 162.641C172.804 163.597 169.859 164.252 166.89 164.604C163.97 165.007 161.177 165.208 158.509 165.208C153.023 165.208 147.864 164.327 143.031 162.565C138.25 160.753 134.047 158.086 130.423 154.562C126.849 151.039 124.005 146.66 121.891 141.425C119.828 136.191 118.796 130.1 118.796 123.154C118.796 117.919 119.677 112.961 121.438 108.28C123.25 103.599 125.817 99.4972 129.139 95.9738C132.512 92.4504 136.564 89.6569 141.295 87.5932C146.077 85.5295 151.462 84.4977 157.452 84.4977C162.637 84.4977 167.368 85.303 171.646 86.9137C175.975 88.5244 179.675 90.8649 182.745 93.9353C185.866 97.0056 188.282 100.781 189.993 105.26C191.755 109.69 192.635 114.723 192.635 120.361C192.635 122.122 192.56 123.557 192.409 124.664C192.258 125.771 191.981 126.652 191.578 127.307C191.176 127.961 190.622 128.414 189.917 128.666C189.263 128.917 188.407 129.043 187.35 129.043H142.201ZM244.74 132.139C240.059 132.34 236.209 132.743 233.189 133.347C230.169 133.951 227.778 134.706 226.016 135.612C224.255 136.518 223.021 137.55 222.317 138.707C221.662 139.865 221.335 141.123 221.335 142.482C221.335 145.15 222.065 147.037 223.525 148.145C224.984 149.202 227.124 149.73 229.942 149.73C232.962 149.73 235.605 149.202 237.87 148.145C240.135 147.088 242.425 145.376 244.74 143.011V132.139ZM202.611 96.5778C207.342 92.4001 212.577 89.3046 218.315 87.2912C224.104 85.2275 230.295 84.1957 236.888 84.1957C241.62 84.1957 245.873 84.9759 249.648 86.5362C253.473 88.0462 256.695 90.1854 259.312 92.9538C261.98 95.6718 264.018 98.9183 265.428 102.693C266.837 106.468 267.542 110.596 267.542 115.076V164H256.821C254.606 164 252.92 163.698 251.762 163.094C250.655 162.49 249.724 161.232 248.969 159.319L247.308 155.015C245.344 156.676 243.457 158.136 241.645 159.394C239.833 160.653 237.945 161.735 235.982 162.641C234.07 163.497 232.006 164.126 229.791 164.529C227.627 164.982 225.211 165.208 222.543 165.208C218.97 165.208 215.723 164.755 212.804 163.849C209.884 162.893 207.393 161.508 205.329 159.696C203.316 157.884 201.755 155.645 200.648 152.977C199.541 150.259 198.987 147.138 198.987 143.615C198.987 140.796 199.692 137.952 201.101 135.083C202.51 132.164 204.952 129.521 208.425 127.156C211.898 124.74 216.579 122.726 222.468 121.116C228.357 119.505 235.781 118.599 244.74 118.398V115.076C244.74 110.495 243.784 107.198 241.871 105.185C240.009 103.121 237.341 102.089 233.868 102.089C231.1 102.089 228.835 102.391 227.073 102.995C225.312 103.599 223.726 104.279 222.317 105.034C220.958 105.789 219.624 106.468 218.315 107.072C217.007 107.676 215.446 107.978 213.634 107.978C212.023 107.978 210.664 107.576 209.557 106.77C208.45 105.965 207.544 105.009 206.839 103.901L202.611 96.5778ZM305.908 50.9753V164H282.503V50.9753H305.908ZM349.738 165.208C346.014 165.208 342.717 164.68 339.848 163.622C337.029 162.515 334.638 160.98 332.675 159.017C330.763 157.004 329.303 154.588 328.296 151.769C327.29 148.95 326.786 145.804 326.786 142.331V101.863H320.142C318.934 101.863 317.902 101.485 317.047 100.73C316.191 99.925 315.763 98.7673 315.763 97.2573V88.1217L328.221 85.7057L332.826 66.604C333.43 64.188 335.142 62.98 337.96 62.98H350.191V85.8567H369.595V101.863H350.191V140.746C350.191 142.558 350.619 144.068 351.475 145.276C352.381 146.433 353.664 147.012 355.326 147.012C356.181 147.012 356.886 146.937 357.44 146.786C358.044 146.584 358.547 146.383 358.95 146.182C359.403 145.93 359.805 145.729 360.158 145.578C360.56 145.376 361.013 145.276 361.517 145.276C362.221 145.276 362.775 145.452 363.178 145.804C363.631 146.106 364.084 146.61 364.537 147.314L371.634 158.413C368.614 160.678 365.216 162.389 361.441 163.547C357.666 164.654 353.765 165.208 349.738 165.208ZM403.086 92.5763C405.904 90.1602 408.95 88.2224 412.221 86.7627C415.543 85.2527 419.494 84.4977 424.075 84.4977C428.353 84.4977 432.128 85.2527 435.4 86.7627C438.722 88.2224 441.516 90.2861 443.781 92.9538C446.046 95.5711 447.757 98.717 448.915 102.391C450.072 106.015 450.651 109.967 450.651 114.245V164H427.246V114.245C427.246 110.42 426.365 107.45 424.603 105.336C422.842 103.172 420.249 102.089 416.827 102.089C414.26 102.089 411.844 102.643 409.579 103.75C407.364 104.807 405.2 106.267 403.086 108.129V164H379.68V50.9753H403.086V92.5763Z" fill="#F9F9F9"/>
<path d="M620.483 28.5791L620.448 61.5688L494.346 186.795L494.381 154.411L620.483 28.5791Z" fill="#313638"/>
<path d="M473.977 33.6908H463.851L471.011 40.8512L607.593 177.433L608.822 178.662L610.559 178.662L645.671 178.662L655.763 178.662L648.644 171.508L512.72 34.9265L511.49 33.6908H509.747L473.977 33.6908Z" fill="#F9F9F9" stroke="#24C48E" stroke-width="8.38897"/>
</svg>
