<svg width="159" height="50" viewBox="0 0 159 50" fill="none" xmlns="http://www.w3.org/2000/svg">
<path d="M25.434 12.774V39H19.314V27.912H8.658V39H2.538V12.774H8.658V23.736H19.314V12.774H25.434ZM40.9219 27.426C40.9219 26.982 40.8619 26.55 40.7419 26.13C40.6339 25.71 40.4479 25.338 40.1839 25.014C39.9319 24.678 39.5959 24.408 39.1759 24.204C38.7559 24 38.2459 23.898 37.6459 23.898C36.5899 23.898 35.7619 24.204 35.1619 24.816C34.5619 25.416 34.1659 26.286 33.9739 27.426H40.9219ZM33.9019 30.666C34.0819 32.226 34.5559 33.36 35.3239 34.068C36.0919 34.764 37.0819 35.112 38.2939 35.112C38.9419 35.112 39.4999 35.034 39.9679 34.878C40.4359 34.722 40.8499 34.548 41.2099 34.356C41.5819 34.164 41.9179 33.99 42.2179 33.834C42.5299 33.678 42.8539 33.6 43.1899 33.6C43.6339 33.6 43.9699 33.762 44.1979 34.086L45.8179 36.084C45.2419 36.744 44.6179 37.284 43.9459 37.704C43.2859 38.112 42.6019 38.436 41.8939 38.676C41.1979 38.904 40.4959 39.06 39.7879 39.144C39.0919 39.24 38.4259 39.288 37.7899 39.288C36.4819 39.288 35.2519 39.078 34.0999 38.658C32.9599 38.226 31.9579 37.59 31.0939 36.75C30.2419 35.91 29.5639 34.866 29.0599 33.618C28.5679 32.37 28.3219 30.918 28.3219 29.262C28.3219 28.014 28.5319 26.832 28.9519 25.716C29.3839 24.6 29.9959 23.622 30.7879 22.782C31.5919 21.942 32.5579 21.276 33.6859 20.784C34.8259 20.292 36.1099 20.046 37.5379 20.046C38.7739 20.046 39.9019 20.238 40.9219 20.622C41.9539 21.006 42.8359 21.564 43.5679 22.296C44.3119 23.028 44.8879 23.928 45.2959 24.996C45.7159 26.052 45.9259 27.252 45.9259 28.596C45.9259 29.016 45.9079 29.358 45.8719 29.622C45.8359 29.886 45.7699 30.096 45.6739 30.252C45.5779 30.408 45.4459 30.516 45.2779 30.576C45.1219 30.636 44.9179 30.666 44.6659 30.666H33.9019ZM58.3481 31.404C57.2321 31.452 56.3141 31.548 55.5941 31.692C54.8741 31.836 54.3041 32.016 53.8841 32.232C53.4641 32.448 53.1701 32.694 53.0021 32.97C52.8461 33.246 52.7681 33.546 52.7681 33.87C52.7681 34.506 52.9421 34.956 53.2901 35.22C53.6381 35.472 54.1481 35.598 54.8201 35.598C55.5401 35.598 56.1701 35.472 56.7101 35.22C57.2501 34.968 57.7961 34.56 58.3481 33.996V31.404ZM48.3041 22.926C49.4321 21.93 50.6801 21.192 52.0481 20.712C53.4281 20.22 54.9041 19.974 56.4761 19.974C57.6041 19.974 58.6181 20.16 59.5181 20.532C60.4301 20.892 61.1981 21.402 61.8221 22.062C62.4581 22.71 62.9441 23.484 63.2801 24.384C63.6161 25.284 63.7841 26.268 63.7841 27.336V39H61.2281C60.7001 39 60.2981 38.928 60.0221 38.784C59.7581 38.64 59.5361 38.34 59.3561 37.884L58.9601 36.858C58.4921 37.254 58.0421 37.602 57.6101 37.902C57.1781 38.202 56.7281 38.46 56.2601 38.676C55.8041 38.88 55.3121 39.03 54.7841 39.126C54.2681 39.234 53.6921 39.288 53.0561 39.288C52.2041 39.288 51.4301 39.18 50.7341 38.964C50.0381 38.736 49.4441 38.406 48.9521 37.974C48.4721 37.542 48.1001 37.008 47.8361 36.372C47.5721 35.724 47.4401 34.98 47.4401 34.14C47.4401 33.468 47.6081 32.79 47.9441 32.106C48.2801 31.41 48.8621 30.78 49.6901 30.216C50.5181 29.64 51.6341 29.16 53.0381 28.776C54.4421 28.392 56.2121 28.176 58.3481 28.128V27.336C58.3481 26.244 58.1201 25.458 57.6641 24.978C57.2201 24.486 56.5841 24.24 55.7561 24.24C55.0961 24.24 54.5561 24.312 54.1361 24.456C53.7161 24.6 53.3381 24.762 53.0021 24.942C52.6781 25.122 52.3601 25.284 52.0481 25.428C51.7361 25.572 51.3641 25.644 50.9321 25.644C50.5481 25.644 50.2241 25.548 49.9601 25.356C49.6961 25.164 49.4801 24.936 49.3121 24.672L48.3041 22.926ZM72.9309 12.054V39H67.3509V12.054H72.9309ZM83.3805 39.288C82.4925 39.288 81.7065 39.162 81.0225 38.91C80.3505 38.646 79.7805 38.28 79.3125 37.812C78.8565 37.332 78.5085 36.756 78.2685 36.084C78.0285 35.412 77.9085 34.662 77.9085 33.834V24.186H76.3245C76.0365 24.186 75.7905 24.096 75.5865 23.916C75.3825 23.724 75.2805 23.448 75.2805 23.088V20.91L78.2505 20.334L79.3485 15.78C79.4925 15.204 79.9005 14.916 80.5725 14.916H83.4885V20.37H88.1145V24.186H83.4885V33.456C83.4885 33.888 83.5905 34.248 83.7945 34.536C84.0105 34.812 84.3165 34.95 84.7125 34.95C84.9165 34.95 85.0845 34.932 85.2165 34.896C85.3605 34.848 85.4805 34.8 85.5765 34.752C85.6845 34.692 85.7805 34.644 85.8645 34.608C85.9605 34.56 86.0685 34.536 86.1885 34.536C86.3565 34.536 86.4885 34.578 86.5845 34.662C86.6925 34.734 86.8005 34.854 86.9085 35.022L88.6005 37.668C87.8805 38.208 87.0705 38.616 86.1705 38.892C85.2705 39.156 84.3405 39.288 83.3805 39.288ZM96.0989 21.972C96.7709 21.396 97.4969 20.934 98.2769 20.586C99.0689 20.226 100.011 20.046 101.103 20.046C102.123 20.046 103.023 20.226 103.803 20.586C104.595 20.934 105.261 21.426 105.801 22.062C106.341 22.686 106.749 23.436 107.025 24.312C107.301 25.176 107.439 26.118 107.439 27.138V39H101.859V27.138C101.859 26.226 101.649 25.518 101.229 25.014C100.809 24.498 100.191 24.24 99.3749 24.24C98.7629 24.24 98.1869 24.372 97.6469 24.636C97.1189 24.888 96.6029 25.236 96.0989 25.68V39H90.5189V12.054H96.0989V21.972Z" fill="#24C48E"/>
<path d="M147.928 6L147.92 13.865L117.856 43.7199L117.864 35.9994L147.928 6Z" fill="#F9F9F9"/>
<path d="M113 7.21826L110.586 7.21826L112.293 8.92537L144.855 41.4876L145.148 41.7805L145.562 41.7805L153.933 41.7805L156.339 41.7805L154.642 40.0751L122.237 7.51286L121.943 7.21826H121.528L113 7.21826Z" fill="#24C48E" stroke="#313638" stroke-width="2"/>
</svg>
